<?xml version="1.0" encoding="UTF-8"?>
<svg width="1280px" height="176px" viewBox="0 0 1280 176" version="1.1" xmlns="http://www.w3.org/2000/svg" xmlns:xlink="http://www.w3.org/1999/xlink">
    <title>Momomedia Logo Design SVG File</title>
    <g id="Page-1" stroke="none" stroke-width="1" fill="none" fill-rule="evenodd">
        <g id="Momomedia-Logo-Design-SVG-File" fill-rule="nonzero">
            <g id="Group">
                <polygon id="Path" fill="#3E82EF" points="70.28 70.28 0 140.59 0 0"></polygon>
                <polygon id="Path" fill="#FE991B" points="175.34 0 175.34 175.31 175.32 175.31 87.67 87.67"></polygon>
                <polygon id="Path" fill="#FE2C78" points="175.32 175.31 0 175.31 87.67 87.67"></polygon>
            </g>
            <g id="Group" transform="translate(229.000000, 17.000000)" fill="#000000">
                <g transform="translate(153.000000, 7.000000)">
                    <path d="M83.61,121.15 C74.16,130.54 62.63,135.23 49.01,135.23 C35.39,135.23 23.89,130.54 14.5,121.15 C5.12,111.76 0.42,100.26 0.42,86.64 C0.42,73.02 5.11,61.52 14.5,52.13 C23.89,42.74 35.39,38.05 49.01,38.05 C62.63,38.05 74.16,42.74 83.61,52.13 C93.06,61.52 97.78,73.02 97.78,86.64 C97.78,100.26 93.05,111.76 83.61,121.15 Z M31.25,104.86 C35.97,109.65 41.9,112.04 49.01,112.04 C56.12,112.04 62.08,109.65 66.86,104.86 C71.65,100.08 74.04,94 74.04,86.64 C74.04,79.28 71.65,73.21 66.86,68.42 C62.08,63.63 56.12,61.24 49.01,61.24 C41.89,61.24 35.97,63.63 31.25,68.42 C26.53,73.2 24.16,79.28 24.16,86.64 C24.16,94 26.52,100.07 31.25,104.86 Z" id="Shape"></path>
                    <path d="M216.31,38.05 C226.86,38.05 235.29,41.49 241.62,48.36 C247.94,55.24 251.1,64.44 251.1,75.97 L251.1,132.66 L227.36,132.66 L227.36,77.63 C227.36,72.11 226.01,67.81 223.31,64.75 C220.61,61.69 216.81,60.15 211.9,60.15 C206.5,60.15 202.3,61.93 199.29,65.49 C196.28,69.05 194.78,74.2 194.78,80.95 L194.78,132.67 L171.04,132.67 L171.04,77.64 C171.04,72.12 169.69,67.82 166.99,64.76 C164.29,61.7 160.49,60.16 155.58,60.16 C150.3,60.16 146.1,61.94 142.97,65.5 C139.84,69.06 138.28,74.21 138.28,80.96 L138.28,132.68 L114.54,132.68 L114.54,40.62 L138.28,40.62 L138.28,50.37 C143.8,42.15 152.33,38.04 163.86,38.04 C175.15,38.04 183.49,42.46 188.89,51.29 C195.01,42.46 204.16,38.05 216.31,38.05 Z" id="Path"></path>
                    <path d="M349.73,121.15 C340.28,130.54 328.75,135.23 315.13,135.23 C301.51,135.23 290.01,130.54 280.62,121.15 C271.24,111.76 266.54,100.26 266.54,86.64 C266.54,73.02 271.23,61.52 280.62,52.13 C290.01,42.74 301.51,38.05 315.13,38.05 C328.75,38.05 340.28,42.74 349.73,52.13 C359.18,61.52 363.900016,73.02 363.900016,86.64 C363.91,100.26 359.18,111.76 349.73,121.15 Z M297.37,104.86 C302.09,109.65 308.02,112.04 315.13,112.04 C322.24,112.04 328.2,109.65 332.98,104.86 C337.77,100.08 340.16,94 340.16,86.64 C340.16,79.28 337.77,73.21 332.98,68.42 C328.2,63.63 322.24,61.24 315.13,61.24 C308.01,61.24 302.09,63.63 297.37,68.42 C292.65,73.2 290.28,79.28 290.28,86.64 C290.29,94 292.65,100.07 297.37,104.86 Z" id="Shape"></path>
                    <path d="M482.43,38.05 C492.98,38.05 501.41,41.49 507.74,48.36 C514.06,55.24 517.22,64.44 517.22,75.97 L517.22,132.66 L493.48,132.66 L493.48,77.63 C493.48,72.11 492.13,67.81 489.43,64.75 C486.73,61.69 482.93,60.15 478.02,60.15 C472.62,60.15 468.42,61.93 465.41,65.49 C462.4,69.05 460.9,74.2 460.9,80.95 L460.9,132.67 L437.16,132.67 L437.16,77.64 C437.16,72.12 435.81,67.82 433.11,64.76 C430.41,61.7 426.61,60.16 421.7,60.16 C416.42,60.16 412.22,61.94 409.09,65.5 C405.96,69.06 404.4,74.21 404.4,80.96 L404.4,132.68 L380.66,132.68 L380.66,40.62 L404.4,40.62 L404.4,50.37 C409.92,42.15 418.45,38.04 429.98,38.04 C441.27,38.04 449.61,42.46 455.01,51.29 C461.14,42.46 470.28,38.05 482.43,38.05 Z" id="Path"></path>
                    <path d="M557.52,96.39 C560.71,107.92 569.36,113.69 583.47,113.69 C592.55,113.69 599.42,110.63 604.08,104.49 L623.22,115.53 C614.14,128.66 600.77,135.22 583.1,135.22 C567.88,135.22 555.68,130.62 546.48,121.42 C537.28,112.22 532.68,100.62 532.68,86.63 C532.68,72.77 537.22,61.2 546.3,51.94 C555.38,42.68 567.03,38.04 581.27,38.04 C594.77,38.04 605.9,42.71 614.67,52.03 C623.44,61.36 627.83,72.89 627.83,86.63 C627.83,89.7 627.52,92.95 626.91,96.39 L557.52,96.39 Z M557.15,77.99 L604.08,77.99 C602.73,71.73 599.94,67.07 595.71,64 C591.47,60.93 586.66,59.4 581.26,59.4 C574.88,59.4 569.6,61.03 565.43,64.28 C561.26,67.53 558.5,72.1 557.15,77.99 Z" id="Shape"></path>
                    <path d="M713.41,3.81 L737.15,3.81 L737.15,132.64 L713.41,132.64 L713.41,121.78 C706.42,130.74 696.48,135.22 683.6,135.22 C671.21,135.22 660.62,130.53 651.85,121.14 C643.08,111.75 638.69,100.25 638.69,86.63 C638.69,73.01 643.08,61.51 651.85,52.12 C660.62,42.73 671.2,38.04 683.6,38.04 C696.48,38.04 706.42,42.52 713.41,51.48 L713.41,3.81 Z M669.69,105.32 C674.54,110.17 680.64,112.59 688.01,112.59 C695.38,112.59 701.44,110.17 706.23,105.32 C711.02,100.47 713.41,94.25 713.41,86.64 C713.41,79.04 711.02,72.81 706.23,67.96 C701.45,63.12 695.37,60.69 688.01,60.69 C680.65,60.69 674.54,63.12 669.69,67.96 C664.84,72.81 662.42,79.04 662.42,86.64 C662.43,94.24 664.85,100.47 669.69,105.32 Z" id="Shape"></path>
                    <path d="M770.64,29.58 C766.71,29.58 763.31,28.14 760.42,25.25 C757.53,22.37 756.1,18.96 756.1,15.03 C756.1,11.11 757.54,7.67 760.42,4.72 C763.3,1.78 766.71,0.3 770.64,0.3 C774.69,0.3 778.15,1.77 781.04,4.72 C783.92,7.66 785.37,11.1 785.37,15.03 C785.37,18.96 783.93,22.36 781.04,25.25 C778.15,28.14 774.69,29.58 770.64,29.58 Z M758.86,132.65 L758.86,40.62 L782.6,40.62 L782.6,132.64 L758.86,132.64 L758.86,132.65 Z" id="Shape"></path>
                    <path d="M874.26,40.62 L898,40.62 L898,132.64 L874.26,132.64 L874.26,121.78 C867.14,130.74 857.14,135.22 844.26,135.22 C831.99,135.22 821.47,130.53 812.69,121.14 C803.92,111.75 799.53,100.25 799.53,86.63 C799.53,73.01 803.92,61.51 812.69,52.12 C821.46,42.73 831.98,38.04 844.26,38.04 C857.14,38.04 867.14,42.52 874.26,51.48 L874.26,40.62 Z M830.46,105.32 C835.24,110.17 841.32,112.59 848.68,112.59 C856.04,112.59 862.14,110.17 866.99,105.32 C871.83,100.47 874.26,94.25 874.26,86.64 C874.26,79.04 871.84,72.81 866.99,67.96 C862.14,63.12 856.04,60.69 848.68,60.69 C841.32,60.69 835.24,63.12 830.46,67.96 C825.67,72.81 823.28,79.04 823.28,86.64 C823.28,94.24 825.67,100.47 830.46,105.32 Z" id="Shape"></path>
                </g>
                <polygon id="Path" points="0.18 142.23 0.18 0.56 68.2 76.88 133.37 1.88 133.37 142.23 106.58 142.23 106.58 70.64 67.34 115.79 26.96 69.31 26.96 142.23"></polygon>
            </g>
        </g>
    </g>
</svg>